<?xml version="1.0" encoding="utf-8"?>
<!-- Generator: Adobe Illustrator 24.0.1, SVG Export Plug-In . SVG Version: 6.00 Build 0)  -->
<svg version="1.1" id="Layer_1" xmlns="http://www.w3.org/2000/svg" xmlns:xlink="http://www.w3.org/1999/xlink" x="0px" y="0px"
	 viewBox="0 0 515.6 51.4" style="enable-background:new 0 0 515.6 51.4;" xml:space="preserve">
<style type="text/css">
	.st0{fill:#FFFFFF;stroke:#FFFFFF;stroke-width:0.75;stroke-miterlimit:10;}
</style>
<g>
	<path class="st0" d="M24.7,6.6v1.9H1.5v16.9h19.8v1.8H1.5V43h24.3v1.9H-0.5V6.6H24.7z"/>
	<path class="st0" d="M64.6,44.9h-1.4l-28-34.5v34.5h-2V6.6h1.4l28,34.4V6.6h2V44.9z"/>
	<path class="st0" d="M71.9,8.5V6.6h29.9v1.9h-14v36.4h-2.1V8.5H71.9z"/>
	<path class="st0" d="M134.3,6.6v1.9h-23.2v16.9h19.8v1.8h-19.8V43h24.3v1.9h-26.3V6.6H134.3z"/>
	<path class="st0" d="M159.4,31.4c-1,0.1-2,0.2-3,0.2h-11.5v13.3h-2.1V6.6h14.2c9,0,13.7,4.2,13.7,12.2c0,6.6-3.3,10.8-9.2,12.2
		l10.2,13.9h-2.6L159.4,31.4z M168.6,18.8c0-6.7-3.9-10.3-11.7-10.3h-12v21.2h11.4C164.3,29.7,168.6,25.9,168.6,18.8z"/>
	<path class="st0" d="M203.1,44.9h-2.1V31.6L186,6.6h2.4l13.7,23l13.7-23h2.5l-15.1,25V44.9z"/>
	<path class="st0" d="M219,25.7c0-11.3,7.7-19.5,20.1-19.5c11.7,0,20.1,7.4,20.1,19.5c0,11.3-7.7,19.5-20.1,19.5
		C227.4,45.2,219,37.9,219,25.7z M257,25.7c0-10.2-6.8-17.5-18-17.5c-10.4,0-18,6.7-18,17.5c0,10.2,6.8,17.5,18,17.5
		C249.5,43.2,257,36.6,257,25.7z"/>
	<path class="st0" d="M266.6,30.1V6.6h2.1v23.3c0,8.9,4,13.4,13,13.4c9,0,13.1-4.5,13.1-13.4V6.6h2.1v23.5c0,9.9-4.8,15.1-15.1,15.1
		C271.4,45.2,266.6,40,266.6,30.1z"/>
	<path class="st0" d="M322.8,31.4c-1,0.1-2,0.2-3,0.2h-11.5v13.3h-2.1V6.6h14.2c9,0,13.7,4.2,13.7,12.2c0,6.6-3.3,10.8-9.2,12.2
		l10.2,13.9h-2.6L322.8,31.4z M332,18.8c0-6.7-3.9-10.3-11.7-10.3h-12v21.2h11.4C327.7,29.7,332,25.9,332,18.8z"/>
	<path class="st0" d="M385.3,44.9H384l-28-34.5v34.5h-2V6.6h1.4l28,34.4V6.6h2V44.9z"/>
	<path class="st0" d="M398.2,34l-4.8,10.9h-2.2l17.2-38.3h1.6l17.2,38.3h-2.2L420.3,34H398.2z M419.5,32.1l-10.2-23l-10.2,23H419.5z
		"/>
	<path class="st0" d="M470.3,44.9h-2V11.4l-16,26.1h-1l-16-26.1v33.4h-2V6.6h1.4l17.2,28.1L469,6.6h1.4V44.9z"/>
	<path class="st0" d="M505.5,6.6v1.9h-23.2v16.9h19.8v1.8h-19.8V43h24.3v1.9h-26.3V6.6H505.5z"/>
	<path class="st0" d="M512.1,16.3c0-1.1,0.9-2,2-2c1.1,0,2,0.9,2,2c0,1.1-0.9,2-2,2C513,18.3,512.1,17.4,512.1,16.3z M512.1,42.5
		c0-1.1,0.9-2,2-2c1.1,0,2,0.9,2,2c0,1.1-0.9,2-2,2C513,44.5,512.1,43.6,512.1,42.5z"/>
</g>
</svg>
