<svg xmlns="http://www.w3.org/2000/svg" xmlns:xlink="http://www.w3.org/1999/xlink" viewBox="0 0 123.59 236.84"><defs><style>.cls-1{isolation:isolate;}.cls-2{fill:#d9b5b2;}.cls-3,.cls-4{opacity:0.4;}.cls-3,.cls-4,.cls-5,.cls-6{mix-blend-mode:screen;}.cls-3{fill:url(#radial-gradient);}.cls-4{fill:url(#radial-gradient-2);}.cls-5{fill:url(#radial-gradient-3);}.cls-6{fill:url(#radial-gradient-4);}</style><radialGradient id="radial-gradient" cx="6556.14" cy="9530.54" r="1072.59" gradientTransform="matrix(-0.05, 0, 0, 0.05, 1175.83, 912)" gradientUnits="userSpaceOnUse"><stop offset="0"/><stop offset="1" stop-color="#fff"/></radialGradient><radialGradient id="radial-gradient-2" cx="6516.42" cy="9601.39" r="1066.16" xlink:href="#radial-gradient"/><radialGradient id="radial-gradient-3" cx="6666.24" cy="9508.6" r="930.67" gradientTransform="matrix(-0.05, 0, 0, 0.05, 1175.83, 912)" gradientUnits="userSpaceOnUse"><stop offset="0" stop-color="#fff"/><stop offset="0.23" stop-color="#fcfcfc"/><stop offset="0.36" stop-color="#f4f4f4"/><stop offset="0.48" stop-color="#e6e6e6"/><stop offset="0.58" stop-color="#d2d2d2"/><stop offset="0.67" stop-color="#b7b7b7"/><stop offset="0.75" stop-color="#979797"/><stop offset="0.83" stop-color="#717171"/><stop offset="0.91" stop-color="#444"/><stop offset="0.98" stop-color="#131313"/><stop offset="1"/></radialGradient><radialGradient id="radial-gradient-4" cx="6710.19" cy="9469.11" r="928.69" xlink:href="#radial-gradient-3"/></defs><title>lantern with moon inside</title><g class="cls-1"><g id="_12" data-name="12"><path class="cls-2" d="M839.36,1261.81S811.49,1266,790.25,1295a33.14,33.14,0,0,0-4.31,27.37l-3.32.67v5.31h2.32v139l-2.32,1.16v12.94l21.07,5.47h81l21.56-5.3v-13.44l-1.82-.67V1328.17h1.82v-5.47h-3s5.64-13.77-5.64-29-27.54-25.88-48-31.85c0,0,4.48-7.8-2.65-11.45,0,0-8-2.32-9.29,6.81A8.39,8.39,0,0,0,839.36,1261.81Z" transform="translate(-782.62 -1250.1)"/></g><g id="gifts_2" data-name="gifts 2"><path class="cls-3" d="M853.14,1341.12c11.65,9.31,14.06,21.06,10.73,36.63A40.66,40.66,0,0,1,815.61,1409c-9.69-2.08-14.19-3.81-19.84-11,4.85,14.7,13.51,22.87,29.74,26.35a45.1,45.1,0,0,0,53.55-34.64c4.85-22.62-11.22-42.83-21.94-47Z" transform="translate(-782.62 -1250.1)"/><path class="cls-4" d="M859.11,1345.53c6.55,10.36,10.08,19.52,6.74,35.09a40.64,40.64,0,0,1-48.25,31.22c-9.69-2.08-14.19-3.81-19.85-11,4.86,14.7,13.52,22.87,29.75,26.35A45.09,45.09,0,0,0,881,1392.49c4.85-22.61-11.21-42.82-21.93-47Z" transform="translate(-782.62 -1250.1)"/><path class="cls-5" d="M853.14,1341.12c13.27,10.6,21.79,22.08,18,39.82-5.36,25-30.13,41.53-55,35.58-13.63-3.27-17.17-13.89-20.36-18.6.77,11.65,14.05,30.64,32.55,34.6,27.75,6,54.17-10.29,60.12-38,5.52-25.77-17.53-47.81-35.3-53.36Z" transform="translate(-782.62 -1250.1)"/><path class="cls-6" d="M850.94,1339.35c13.26,10.61,21.78,22.08,18,39.82-5.36,25-30.12,41.54-55,35.58-13.63-3.26-17.17-13.88-20.37-18.6.57,14.93,16.26,30.2,34.76,34.16,27.75,6,52-9.85,57.91-37.6,5.52-25.77-16.86-47.15-35.29-53.36Z" transform="translate(-782.62 -1250.1)"/><path class="cls-3" d="M853.14,1341.12c11.65,9.31,14.06,21.06,10.73,36.63A40.66,40.66,0,0,1,815.61,1409c-9.69-2.08-14.19-3.81-19.84-11,4.85,14.7,13.51,22.87,29.74,26.35a45.1,45.1,0,0,0,53.55-34.64c4.85-22.62-11.22-42.83-21.94-47Z" transform="translate(-782.62 -1250.1)"/><path class="cls-4" d="M859.11,1345.53c6.55,10.36,10.08,19.52,6.74,35.09a40.64,40.64,0,0,1-48.25,31.22c-9.69-2.08-14.19-3.81-19.85-11,4.86,14.7,13.52,22.87,29.75,26.35A45.09,45.09,0,0,0,881,1392.49c4.85-22.61-11.21-42.82-21.93-47Z" transform="translate(-782.62 -1250.1)"/><path class="cls-5" d="M853.14,1341.12c13.27,10.6,21.79,22.08,18,39.82-5.36,25-30.13,41.53-55,35.58-13.63-3.27-17.17-13.89-20.36-18.6.77,11.65,14.05,30.64,32.55,34.6,27.75,6,54.17-10.29,60.12-38,5.52-25.77-17.53-47.81-35.3-53.36Z" transform="translate(-782.62 -1250.1)"/><path class="cls-6" d="M850.94,1339.35c13.26,10.61,21.78,22.08,18,39.82-5.36,25-30.12,41.54-55,35.58-13.63-3.26-17.17-13.88-20.37-18.6.57,14.93,16.26,30.2,34.76,34.16,27.75,6,52-9.85,57.91-37.6,5.52-25.77-16.86-47.15-35.29-53.36Z" transform="translate(-782.62 -1250.1)"/></g></g></svg>