<?xml version="1.0" encoding="utf-8"?>
<!-- Generator: Adobe Illustrator 24.0.1, SVG Export Plug-In . SVG Version: 6.00 Build 0)  -->
<svg version="1.1" id="Layer_1" xmlns="http://www.w3.org/2000/svg" xmlns:xlink="http://www.w3.org/1999/xlink" x="0px" y="0px"
	 viewBox="0 0 810.2 139.6" style="enable-background:new 0 0 810.2 139.6;" xml:space="preserve">
<style type="text/css">
	.st0{fill:#FFFFFF;stroke:#FFFFFF;stroke-width:0.75;stroke-miterlimit:10;}
</style>
<g>
	<path class="st0" d="M56.6,42.6c-1.1,0.1-2.3,0.2-3.5,0.2H39.7v15.5h-2.4V13.8h16.5c10.5,0,15.9,4.9,15.9,14.2
		c0,7.6-3.8,12.5-10.7,14.1L71,58.3h-3L56.6,42.6z M67.2,28c0-7.8-4.5-12-13.6-12H39.7v24.6H53C62.2,40.6,67.2,36.2,67.2,28z"/>
	<path class="st0" d="M108.5,13.8V16H81.6v19.6h23v2.1h-23v18.3h28.3v2.2H79.2V13.8H108.5z"/>
	<path class="st0" d="M134.7,58.5h-1.4l-20.1-44.7h2.6L134,54.6l18.2-40.8h2.6L134.7,58.5z"/>
	<path class="st0" d="M163.7,13.8v44.5h-2.4V13.8H163.7z"/>
	<path class="st0" d="M191.6,58.5h-1.4l-20.1-44.7h2.6l18.1,40.8l18.2-40.8h2.6L191.6,58.5z"/>
	<path class="st0" d="M247.4,13.8V16h-26.9v19.6h23v2.1h-23v18.3h28.3v2.2h-30.6V13.8H247.4z"/>
	<path class="st0" d="M285.5,58.3h-2.4V42.9l-17.5-29.1h2.8l15.9,26.7l15.9-26.7h2.9l-17.5,29.1V58.3z"/>
	<path class="st0" d="M303.9,36.1c0-13.2,8.9-22.7,23.3-22.7c13.6,0,23.4,8.6,23.4,22.7c0,13.2-8.9,22.6-23.4,22.6
		C313.7,58.7,303.9,50.1,303.9,36.1z M348.2,36.1c0-11.9-7.9-20.4-20.9-20.4c-12.1,0-20.9,7.8-20.9,20.4c0,11.8,7.9,20.3,20.9,20.3
		C339.5,56.4,348.2,48.7,348.2,36.1z"/>
	<path class="st0" d="M359.3,41.1V13.8h2.4v27.1c0,10.3,4.7,15.5,15.1,15.5c10.5,0,15.2-5.2,15.2-15.5V13.8h2.4v27.3
		c0,11.5-5.6,17.6-17.6,17.6C364.9,58.7,359.3,52.7,359.3,41.1z"/>
	<path class="st0" d="M424.6,42.6c-1.1,0.1-2.3,0.2-3.5,0.2h-13.3v15.5h-2.4V13.8h16.5c10.5,0,15.9,4.9,15.9,14.2
		c0,7.6-3.8,12.5-10.7,14.1L439,58.3h-3L424.6,42.6z M435.3,28c0-7.8-4.5-12-13.6-12h-13.9v24.6H421C430.2,40.6,435.3,36.2,435.3,28
		z"/>
	<path class="st0" d="M480,42.6c-1.1,0.1-2.3,0.2-3.5,0.2h-13.3v15.5h-2.4V13.8h16.5c10.5,0,15.9,4.9,15.9,14.2
		c0,7.6-3.8,12.5-10.7,14.1l11.9,16.1h-3L480,42.6z M490.7,28c0-7.8-4.5-12-13.6-12h-13.9v24.6h13.2C485.6,40.6,490.7,36.2,490.7,28
		z"/>
	<path class="st0" d="M506.1,45.7l-5.6,12.6H498l20-44.5h1.8l20,44.5h-2.5l-5.6-12.6H506.1z M530.7,43.4l-11.9-26.7l-11.8,26.7
		H530.7z"/>
	<path class="st0" d="M589.8,58.3h-2.3V19.4l-18.6,30.3h-1.2l-18.6-30.3v38.9h-2.3V13.8h1.6l20,32.6l19.9-32.6h1.6V58.3z"/>
	<path class="st0" d="M604.8,45.7l-5.6,12.6h-2.5l20-44.5h1.8l20,44.5h-2.5l-5.6-12.6H604.8z M629.5,43.4l-11.9-26.7l-11.8,26.7
		H629.5z"/>
	<path class="st0" d="M660.4,13.8c13.2,0,21.3,7.4,21.3,22.1c0,13.8-7.1,22.4-20.9,22.4h-15.1V13.8H660.4z M679.2,35.9
		c0-12.4-6.3-19.8-18.9-19.8h-12.5V56h12.6C672.1,56,679.2,49.1,679.2,35.9z"/>
	<path class="st0" d="M691.8,45.7l-5.6,12.6h-2.5l20-44.5h1.8l20,44.5h-2.5l-5.6-12.6H691.8z M716.5,43.4l-11.9-26.7l-11.8,26.7
		H716.5z"/>
	<path class="st0" d="M769,58.3h-1.6l-32.5-40.1v40.1h-2.3V13.8h1.6l32.5,40v-40h2.3V58.3z"/>
	<path class="st0" d="M59.1,125.8h-2.3V86.9l-18.6,30.3h-1.2L18.3,86.9v38.9H16V81.3h1.6l20,32.6l19.9-32.6h1.6V125.8z"/>
	<path class="st0" d="M68.3,103.6c0-13.2,8.9-22.7,23.3-22.7c13.6,0,23.4,8.6,23.4,22.7c0,13.2-8.9,22.6-23.4,22.6
		C78.1,126.2,68.3,117.6,68.3,103.6z M112.6,103.6c0-11.9-7.9-20.4-20.9-20.4c-12.1,0-20.9,7.8-20.9,20.4c0,11.8,7.9,20.3,20.9,20.3
		C103.9,123.9,112.6,116.2,112.6,103.6z"/>
	<path class="st0" d="M167.5,125.8h-2.3V86.9l-18.6,30.3h-1.2l-18.6-30.3v38.9h-2.3V81.3h1.6l20,32.6l19.9-32.6h1.6V125.8z"/>
	<path class="st0" d="M208.3,81.3v2.2h-26.9v19.6h23v2.1h-23v18.3h28.3v2.2h-30.6V81.3H208.3z"/>
	<path class="st0" d="M254.8,125.8h-1.6l-32.5-40.1v40.1h-2.3V81.3h1.6l32.5,40v-40h2.3V125.8z"/>
	<path class="st0" d="M263.2,83.5v-2.2H298v2.2h-16.2v42.3h-2.4V83.5H263.2z"/>
	<path class="st0" d="M304,122.2l1-2.3c4.7,2.7,9.5,4,16,4c8.1,0,13.2-3.2,13.2-9.7c0-6.9-6.6-8.2-14.1-9.8
		c-9.5-2.1-15.8-4.2-15.8-12.2c0-6.8,5.6-11.3,15-11.3c5.7,0,11.7,1.3,15.5,3.4l-1.1,2.1c-3.6-2-9-3.2-14.4-3.2
		c-7.9,0-12.6,3.7-12.6,9c0,6.2,5.6,8.1,14.1,9.9c8.4,1.7,15.9,3.6,15.9,12c0,8.2-6.2,12.1-15.6,12.1C314,126.2,309,124.9,304,122.2
		z"/>
	<path class="st0" d="M401.6,126h-1.5l-14.6-40.2L370.9,126h-1.4l-15.7-44.7h2.6l13.8,40.2l14.6-40.2h1.6l14.4,40.2l13.9-40.2h2.5
		L401.6,126z"/>
	<path class="st0" d="M426.2,81.3v44.5h-2.4V81.3H426.2z"/>
	<path class="st0" d="M434.7,83.5v-2.2h34.8v2.2h-16.2v42.3h-2.4V83.5H434.7z"/>
	<path class="st0" d="M480.3,81.3v23.7h29.1V81.3h2.3v44.5h-2.3v-18.7h-29.1v18.7H478V81.3H480.3z"/>
	<path class="st0" d="M539.2,81.3v42.3h27.4v2.2h-29.8V81.3H539.2z"/>
	<path class="st0" d="M576.8,83.3c0,5.8-2.7,9.5-7.6,9.5v-1.3c2.5-0.1,5.5-1.6,5.6-7.4c-1.5,0-2.4-0.9-2.4-2c0-1.3,0.9-2.1,2.1-2.1
		C576,80,576.8,81.2,576.8,83.3z"/>
	<path class="st0" d="M583.2,103.6c0-13.2,8.9-22.7,23.3-22.7c13.6,0,23.4,8.6,23.4,22.7c0,13.2-8.9,22.6-23.4,22.6
		C593,126.2,583.2,117.6,583.2,103.6z M627.4,103.6c0-11.9-7.9-20.4-20.9-20.4c-12.1,0-20.9,7.8-20.9,20.4
		c0,11.8,7.9,20.3,20.9,20.3C618.7,123.9,627.4,116.2,627.4,103.6z"/>
	<path class="st0" d="M658.4,110.1c-1.1,0.1-2.3,0.2-3.5,0.2h-13.3v15.5h-2.4V81.3h16.5c10.5,0,15.9,4.9,15.9,14.2
		c0,7.6-3.8,12.5-10.7,14.1l11.9,16.1h-3L658.4,110.1z M669.1,95.5c0-7.8-4.5-12-13.6-12h-13.9v24.6h13.2
		C664.1,108.1,669.1,103.7,669.1,95.5z"/>
	<path class="st0" d="M710.4,81.3v2.2h-26.9v19.6h23v2.1h-23v18.3h28.3v2.2h-30.6V81.3H710.4z M706.1,67.9l-9.8,9.5h-2.1l9-9.8
		L706.1,67.9z"/>
	<path class="st0" d="M723.7,113.1l-5.6,12.6h-2.5l20-44.5h1.8l20,44.5H755l-5.6-12.6H723.7z M748.4,110.9l-11.9-26.7l-11.8,26.7
		H748.4z"/>
	<path class="st0" d="M766.8,81.3v42.3h27.4v2.2h-29.8V81.3H766.8z"/>
</g>
</svg>
