<svg xmlns="http://www.w3.org/2000/svg" width="782.229" height="230.838" viewBox="0 0 782.229 230.838">
  <g id="Group_93" data-name="Group 93" transform="translate(-144.605 -1328.407)">
    <path id="Path_129" data-name="Path 129" d="M192.139,1345.867v-15.675h75.573v15.675H239.038v74.171H220.813v-74.171Z" fill="#fff"/>
    <path id="Path_130" data-name="Path 130" d="M315.884,1394.55H297.4v25.488H279.436v-89.846h36.448c23.7,0,36.321,11.342,36.321,32.116,0,14.4-6.372,24.086-17.97,28.8l21.283,28.93H333.726Zm17.587-31.606c0-11.341-5.99-17.2-18.989-17.2H297.4v33.391h15.548C326.971,1379.13,333.471,1372.5,333.471,1362.944Z" fill="#fff"/>
    <path id="Path_131" data-name="Path 131" d="M403.055,1420.038H384.831v-31.223L351.7,1330.192h20.9l21.41,40.654,21.411-40.654h21.027l-33.389,58.877Z" fill="#fff"/>
    <path id="Path_132" data-name="Path 132" d="M490.222,1402.961l-7.646,17.077H463.332l42.438-89.974h9.813l42.565,89.974H538.777l-7.646-17.077Zm35.047-14.655-14.656-34.028-14.529,34.028Z" fill="#fff"/>
    <path id="Path_133" data-name="Path 133" d="M643.662,1409.843c-9.685,8.411-23.193,11.979-38.742,11.979-29.566,0-48.045-17.969-48.045-46.643,0-28.8,18.479-46.772,47.791-46.772,15.42,0,27.145,4.971,35.811,12.872L629.135,1353.9c-5.99-5.352-14.783-8.667-24.469-8.667-17.97,0-29.312,11.471-29.312,29.95,0,18.988,11.98,30.2,30.585,30.2,8.157,0,15.676-1.4,21.411-5.352v-12.872H602.627v-14.911h41.035Z" fill="#fff"/>
    <path id="Path_134" data-name="Path 134" d="M675.521,1402.961l-7.646,17.077H648.631l42.438-89.974h9.814l42.564,89.974H724.076l-7.646-17.077Zm35.047-14.655-14.656-34.028-14.528,34.028Z" fill="#fff"/>
    <path id="Path_135" data-name="Path 135" d="M772,1330.192v89.846H753.645v-89.846Z" fill="#fff"/>
    <path id="Path_136" data-name="Path 136" d="M870.762,1420.038h-8.92l-53.908-55.691v55.691H790.092v-89.846h8.793l54.035,55.692v-55.692h17.842Z" fill="#fff"/>
    <path id="Path_137" data-name="Path 137" d="M225.275,1558.607h-8.921l-53.907-55.692v55.692H144.6v-89.846H153.4l54.036,55.692v-55.692h17.841Z" fill="#fff"/>
    <path id="Path_138" data-name="Path 138" d="M308.111,1468.761v15.549H260.193v23.066H300.21v15.038H260.193v20.646h50.6v15.547H242.479v-89.846Z" fill="#fff"/>
    <path id="Path_139" data-name="Path 139" d="M317.287,1468.761H337.8l21.92,31.988,22.047-31.988h20.263l-30.586,44.6,31.478,45.241H382.282l-22.557-32.243-22.685,32.243H316.395L348,1513.366Z" fill="#fff"/>
    <path id="Path_140" data-name="Path 140" d="M407.132,1484.437v-15.676H482.7v15.676H454.031v74.17H435.807v-74.17Z" fill="#fff"/>
    <path id="Path_141" data-name="Path 141" d="M612.947,1559.245h-7.9l-25.235-57.731-25.105,57.731h-7.9l-34.027-90.484h19.626l19.626,57.093,23.576-57.093h8.539l23.577,57.221,19.5-57.221h19.627Z" fill="#fff"/>
    <path id="Path_142" data-name="Path 142" d="M721.656,1468.761v15.549H673.738v23.066h40.016v15.038H673.738v20.646h50.594v15.547H656.023v-89.846Z" fill="#fff"/>
    <path id="Path_143" data-name="Path 143" d="M803.09,1468.761v15.549H755.172v23.066h40.017v15.038H755.172v20.646h50.6v15.547H737.458v-89.846Z" fill="#fff"/>
    <path id="Path_144" data-name="Path 144" d="M836.352,1537.579v21.028H818.893v-89.846h17.459v45.115l38.36-45.115H897.27l-35.43,40.527,37.722,49.319h-22.3l-27.273-35.938Z" fill="#fff"/>
    <path id="Path_145" data-name="Path 145" d="M905.424,1547.521a10.706,10.706,0,1,1,10.832,10.832A10.824,10.824,0,0,1,905.424,1547.521Zm19.754-78.632-2.932,59.9H909.885l-2.932-59.9Z" fill="#fff"/>
  </g>
</svg>
